<svg width="510" height="563" viewBox="0 0 510 563" fill="none" xmlns="http://www.w3.org/2000/svg">
<mask id="mask0_1_35" style="mask-type:alpha" maskUnits="userSpaceOnUse" x="0" y="0" width="510" height="563">
<path d="M362.238 99.5C358.351 90.7 340.211 45.1667 331.627 23.5C356.245 15.6667 407.232 0 414.229 0C422.975 0 452.128 23.5 462.818 37C473.508 50.5 500.718 87.5 507.034 99.5C513.351 111.5 504.119 212 500.718 231C497.316 250 442.896 337.5 434.636 352C426.376 366.5 319.479 455 299.558 461.5C279.636 468 116.862 562 101.799 562.5C89.749 562.9 66.3289 479.833 45.4355 472L7.04988 444.5C5.75416 429.667 2.77402 395.1 1.21916 375.5C-0.724415 351 7.04988 304 7.04988 302C7.04988 300.4 19.0352 264.333 25.0279 246.5L45.4355 222L67.7866 259L70.7019 262.5L76.0467 291.5C97.426 308.833 141.254 343.3 145.529 342.5C149.805 341.7 204.647 338.833 231.533 337.5L315.106 314.5L393.821 184.5C384.913 159.833 366.125 108.3 362.238 99.5Z" fill="#D9D9D9"/>
</mask>
<g mask="url(#mask0_1_35)">
<path d="M343.793 55.2558C401.181 46.1195 443.45 59.8646 465.174 89.8158C486.89 119.755 487.965 165.781 463.14 220.812C438.315 275.843 392.334 329.36 338.155 371.382C283.955 413.42 221.785 443.792 164.396 452.929C107.008 462.065 64.7393 448.32 43.0151 418.369C21.2995 388.429 20.224 342.403 45.0492 287.373C69.8745 232.342 115.855 178.824 170.034 136.803C224.234 94.7642 286.404 64.3922 343.793 55.2558Z" stroke="#1B1B1D" stroke-width="3"/>
<path d="M343.792 85.2558C401.18 76.1195 443.449 89.8646 465.174 119.816C486.889 149.755 487.965 195.781 463.139 250.812C438.314 305.843 392.333 359.36 338.155 401.382C283.955 443.42 221.784 473.792 164.396 482.929C107.008 492.065 64.7389 478.32 43.0146 448.369C21.299 418.429 20.2235 372.403 45.0488 317.373C69.874 262.342 115.855 208.824 170.033 166.803C224.233 124.764 286.404 94.3922 343.792 85.2558Z" stroke="#1B1B1D" stroke-width="3"/>
</g>
</svg>
